# xmcd
#
# Track frame offsets: 
#        182
#        12750
#        27890
#        42937
#        59565
#        73997
#        85510
#        101562
#        115825
#        127997
#
# Disc length: 1914 seconds
#
# Revision: 5
# Processed by: cddbd v1.5.2PL0 Copyright (c) Steve Scherf et al.
# Submitted via: ExactAudioCopy v0.95b4
#
DISCID=7d07780a
DTITLE=John Anderson - Greatest Hits Volume II
DYEAR=1990
DGENRE=Country
TTITLE0=She Sure Got Away With My Heart
TTITLE1=Down In Tennessee
TTITLE2=It's All Over Now
TTITLE3=Honky Tonk Crowd
TTITLE4=You Can't Keep A Good Memory Down
TTITLE5=Let Sombody Else Drive
TTITLE6=Goin' Down Hill
TTITLE7=I Wish I Could Write You A Song
TTITLE8=Tokyo, Oklahoma
TTITLE9=Countrified
EXTD=corrections to: windking3@yahoo.com
EXTT0=
EXTT1=
EXTT2=
EXTT3=
EXTT4=
EXTT5=
EXTT6=
EXTT7=
EXTT8=
EXTT9=
PLAYORDER=
